<?xml version="1.0" standalone="no"?>
<!DOCTYPE svg PUBLIC "-//W3C//DTD SVG 20010904//EN"
 "http://www.w3.org/TR/2001/REC-SVG-20010904/DTD/svg10.dtd">
<svg version="1.0" xmlns="http://www.w3.org/2000/svg"
 width="240.000000pt" height="240.000000pt" viewBox="0 0 240.000000 240.000000"
 preserveAspectRatio="xMidYMid meet">
<metadata>
Created by potrace 1.14, written by Peter Selinger 2001-2017
</metadata>
<g transform="translate(0.000000,240.000000) scale(0.100000,-0.100000)"
fill="#000000" stroke="none">
<path d="M453 1780 c-17 -10 -37 -28 -42 -39 -7 -13 -11 -167 -11 -456 l0
-437 34 -34 34 -34 246 0 c313 0 659 0 972 0 l246 0 34 34 34 34 0 439 c0 481
2 466 -60 498 -25 13 -129 15 -742 15 -688 0 -714 -1 -745 -20z m1452 -495 l0
-410 -705 0 -705 0 -3 400 c-1 220 0 406 3 413 3 10 150 12 707 10 l703 -3 0
-410z"/>
<path d="M1055 1440 c-9 -14 77 -290 91 -290 6 0 24 16 40 37 l27 36 47 -53
c32 -36 52 -51 65 -49 35 7 28 37 -21 89 -26 28 -45 52 -43 53 2 2 21 14 42
26 21 13 36 28 34 34 -1 5 -57 33 -123 62 -155 66 -152 66 -159 55z"/>
<path d="M956 696 c-38 -46 -43 -65 -24 -84 17 -17 519 -17 536 0 19 19 14 38
-24 84 l-35 44 -209 0 -209 0 -35 -44z"/>
</g>
</svg>
